<svg version="1.2" xmlns="http://www.w3.org/2000/svg" viewBox="0 0 1080 1080" width="1080" height="1080"><defs><linearGradient id="P" gradientUnits="userSpaceOnUse"/><linearGradient id="g1" x1="286.7" y1="185.1" x2="978.6" y2="1155.4" href="#P"><stop stop-color="#27b7ea"/><stop offset="1" stop-color="#2c3074"/></linearGradient></defs><style>.s0{fill:url(#g1)}.s1{fill:#d1d2d2}.s2{fill:#ffffff}</style><path class="s0" d="m843.6 1080.1h-607.2c-130.5 0-236.4-105.8-236.4-236.4v-606.9c0-130.6 105.9-236.4 236.4-236.4h607.2c130.5 0 236.4 105.8 236.4 236.4v607.1c0 130.4-105.9 236.2-236.4 236.2z" /><path class="s1" d="m587.3 398.1h-316.5c-8.9 0-14.8-9.1-11.5-17.2c20.1-47.8 90-180 250.8-180h124.8c8.1 0 14.1 7.8 12 15.6l-47.6 172.5c-1.6 5.5-6.5 9.1-12 9.1z" /><path class="s1" d="m533.2 682.4h316.6c8.8 0 14.8 9.1 11.4 17.2c-20 47.8-90 180-250.7 180h-124.9c-8 0-14-7.8-11.9-15.6l47.6-172.5c1.5-5.5 6.5-9.1 11.9-9.1z" /><path class="s2" d="m857.6 639.5h-469.5c-87.7 0-158.7-71-158.7-158.7v-13c0-14.6 11.7-26.3 26.3-26.3h469.5c87.7 0 158.7 71 158.7 158.7v13c0 14.6-11.7 26.3-26.3 26.3z" /></svg>