<?xml version="1.0" standalone="no"?>
<!DOCTYPE svg PUBLIC "-//W3C//DTD SVG 20010904//EN"
 "http://www.w3.org/TR/2001/REC-SVG-20010904/DTD/svg10.dtd">
<svg version="1.0" xmlns="http://www.w3.org/2000/svg"
 width="1730.000000pt" height="1730.000000pt" viewBox="0 0 1730.000000 1730.000000"
 preserveAspectRatio="xMidYMid meet">
<metadata>
Created by potrace 1.14, written by Peter Selinger 2001-2017
</metadata>
<g transform="translate(0.000000,1730.000000) scale(0.100000,-0.100000)"
fill="#000000" stroke="none">
<path d="M3489 17289 c-1342 -104 -2535 -924 -3120 -2143 -187 -392 -300 -795
-351 -1251 -19 -176 -19 -10358 0 -10515 60 -480 181 -888 383 -1292 472 -942
1328 -1651 2342 -1943 181 -52 407 -97 607 -122 138 -17 391 -18 5300 -18
4912 0 5162 1 5300 18 370 46 701 133 1024 268 980 411 1750 1224 2107 2222
89 246 158 540 196 827 17 128 18 406 21 5215 2 3592 0 5124 -8 5230 -85 1167
-700 2226 -1670 2875 -500 334 -994 519 -1650 617 -108 16 -447 18 -5245 19
-2821 1 -5178 -2 -5236 -7z m6789 -3242 c51 -33 84 -95 85 -156 0 -66 -765
-2833 -798 -2882 -13 -21 -43 -46 -67 -58 l-44 -21 -2582 0 c-1799 0 -2589 3
-2609 11 -65 24 -122 109 -123 182 0 68 146 384 311 673 705 1231 1745 2010
2961 2218 359 62 398 63 1684 62 l1140 -1 42 -28z m1777 -3849 c266 -51 496
-128 725 -245 680 -348 1179 -1007 1329 -1758 38 -191 45 -276 46 -540 0 -225
-2 -267 -18 -312 -39 -113 -147 -221 -260 -260 -50 -17 -224 -18 -3972 -18
-3658 0 -3928 1 -4032 17 -464 71 -868 242 -1223 516 -117 91 -306 277 -403
397 -314 389 -507 850 -557 1330 -7 64 -10 215 -8 360 l3 250 33 64 c56 106
145 181 257 217 32 10 812 12 3990 11 l3950 -3 140 -26z m1632 -3839 c63 -24
122 -109 123 -177 0 -46 -36 -134 -150 -367 -720 -1468 -1911 -2383 -3330
-2559 -247 -31 -455 -36 -1516 -36 l-1070 0 -52 26 c-66 33 -104 92 -105 162
0 67 765 2833 798 2883 13 20 43 46 67 58 l43 21 2582 0 c1800 0 2590 -3 2610
-11z"/>
</g>
</svg>
